<svg width="200" height="200" viewBox="0 0 200 200" fill="none" xmlns="http://www.w3.org/2000/svg">
<path d="M28.6441 85.8866C30.2844 78.4384 32.5029 69.5028 36.4247 62.1051C38.3819 58.4082 40.7573 55.1035 43.6554 52.5328C46.5582 49.962 49.967 48.1098 54.1132 47.2632C57.3686 46.6147 59.499 47.1077 61.1067 48.1601C62.712 49.2202 63.9089 51.0182 64.7612 53.3521C66.4831 58.0004 66.6404 64.4973 66.718 69.2621C66.7312 70.0737 67.3227 70.8192 68.0982 71.0134C68.8671 71.2348 69.7525 70.8892 70.1897 70.163C72.3624 66.5632 75.6388 61.1538 79.5209 55.655C83.3973 50.164 87.8961 44.5836 92.3821 40.7158C94.62 38.778 96.8502 37.2752 98.9231 36.3937C101.005 35.5044 102.872 35.2365 104.58 35.5744C106.286 35.9239 107.976 36.8636 109.752 38.9023C111.516 40.9372 113.288 44.0749 114.889 48.5446C116.224 52.2687 116.311 55.8297 116.313 60.1868C116.313 61.1498 116.928 62.0431 117.795 62.3848C118.653 62.7498 119.717 62.5478 120.407 61.8488C125.154 57.0412 132.094 50.8357 139.318 47.131C142.925 45.2748 146.581 44.0517 150.007 43.8264C153.446 43.609 156.628 44.3041 159.725 46.3817C159.987 46.5564 160.249 46.7466 160.511 46.9446C162.17 48.2106 163.347 49.5271 164.176 50.8824C165.003 52.2415 165.492 53.6396 165.724 55.1269C166.188 58.0899 165.568 61.4682 164.17 64.9632C161.398 71.957 155.589 79.1451 151.293 83.9332C150.62 84.6827 150.457 85.7895 150.855 86.671C151.232 87.5642 152.153 88.1971 153.167 88.2126C156.366 88.2631 159.889 88.0145 163.418 87.8903C166.943 87.766 170.465 87.766 173.537 88.2475C176.621 88.7252 179.184 89.6689 181.019 91.2377C181.944 92.026 182.718 92.9736 183.347 94.1969C183.974 95.424 184.453 96.9385 184.706 98.8413C185.104 101.707 184.267 105.509 182.361 109.482C180.469 113.454 177.563 117.582 174.143 121.213C170.727 124.844 166.794 127.986 162.929 130.055C159.062 132.141 155.3 133.104 152.272 132.739C151.56 132.661 151.175 132.506 151.126 132.467C151.119 132.467 151.121 132.467 151.119 132.463C151.121 132.467 151.128 132.471 151.138 132.479C151.159 132.494 151.194 132.525 151.234 132.568C151.317 132.657 151.416 132.816 151.467 132.98C151.521 133.143 151.528 133.294 151.522 133.376C151.519 133.415 151.514 133.442 151.512 133.453C151.511 133.457 151.511 133.453 151.511 133.457C151.511 133.453 151.513 133.449 151.516 133.442C151.538 133.368 151.673 133.104 151.92 132.797C152.41 132.164 153.314 131.364 154.209 130.77C154.656 130.467 155.101 130.215 155.474 130.036C155.842 129.857 156.152 129.764 156.221 129.753C157.905 129.43 159.287 129.399 160.387 129.554C161.489 129.706 162.307 130.032 162.954 130.451C163.598 130.875 164.088 131.399 164.484 132.067C164.877 132.731 165.164 133.542 165.317 134.474C165.63 136.338 165.369 138.68 164.538 140.936C163.714 143.2 162.336 145.363 160.601 146.959C155.179 151.981 147.043 156.12 138.368 158.982C129.698 161.856 120.483 163.483 112.963 163.735C112.328 163.759 111.35 163.646 110.243 163.37C109.132 163.098 107.883 162.675 106.626 162.143C104.11 161.087 101.552 159.569 99.8551 158.085C99.0059 157.347 98.3814 156.621 98.0657 156.078C97.9057 155.806 97.8222 155.588 97.788 155.452C97.7535 155.308 97.7616 155.258 97.764 155.235C97.7706 155.215 97.7651 155.204 97.8222 155.114C97.8797 155.033 98.0148 154.874 98.2979 154.672C98.8563 154.264 100.011 153.732 101.815 153.309C101.955 153.274 102.066 153.25 102.143 153.239C102.181 153.235 102.211 153.231 102.23 153.227C102.249 153.227 102.252 153.227 102.255 153.227C102.245 153.211 102.024 153.281 101.441 153.002C101.161 152.858 100.803 152.571 100.56 152.179C100.31 151.786 100.209 151.344 100.2 151.025C100.199 150.377 100.358 150.19 100.37 150.136C100.373 150.128 100.375 150.124 100.376 150.12C100.375 150.124 100.377 150.12 100.376 150.124C100.374 150.128 100.367 150.136 100.355 150.155C100.333 150.187 100.294 150.241 100.24 150.307C100.132 150.439 99.9681 150.625 99.7643 150.835C99.3553 151.254 98.7888 151.775 98.1484 152.318C96.8657 153.41 95.2814 154.609 93.921 155.549C93.2418 156.019 92.6155 156.427 92.1281 156.722C91.8858 156.866 91.6773 156.982 91.5297 157.06C91.4567 157.099 91.3988 157.126 91.3658 157.141C91.3336 157.157 91.3243 157.157 91.3658 157.141C85.9439 158.982 79.9555 160.78 73.9457 161.957C67.937 163.133 61.9117 163.677 56.4513 163.079C52.7369 162.667 50.5064 161.448 49.1161 159.945C47.7352 158.439 47.0471 156.474 46.997 154.074C46.95 151.689 47.6048 148.948 48.8412 146.334C50.0718 143.717 51.8741 141.235 53.9827 139.321C54.7726 138.599 55.936 137.872 57.3402 137.255C58.7433 136.638 60.3809 136.117 62.1016 135.733C65.5402 134.96 69.3265 134.739 72.2428 135.096C73.6971 135.267 74.9309 135.585 75.7386 135.954C76.1432 136.137 76.4376 136.323 76.6154 136.475C76.796 136.626 76.8558 136.727 76.8756 136.766C76.8927 136.809 76.8974 136.801 76.8978 136.898C76.8943 136.991 76.864 137.201 76.7016 137.55C76.3894 138.241 75.5122 139.414 73.8754 140.832C72.6902 141.868 70.8281 142.936 68.5467 143.826C66.2652 144.723 63.5683 145.46 60.7016 145.954C54.6899 147.006 47.917 146.979 42.5704 145.526C39.8948 144.808 37.5916 143.744 35.8764 142.393C34.1553 141.033 33.0054 139.445 32.4094 137.418C31.8288 135.403 31.8556 133.888 32.1896 132.665C32.5321 131.442 33.1981 130.424 34.2458 129.473C35.2888 128.525 36.7206 127.69 38.4087 127.019C40.0948 126.347 42.0268 125.838 44.0228 125.492C48.0141 124.797 52.2698 124.747 55.3508 125.057C56.8828 125.209 58.141 125.461 58.7941 125.683C58.9549 125.737 59.0749 125.784 59.1382 125.815C59.2015 125.842 59.2077 125.854 59.1347 125.799C59.066 125.745 58.8994 125.621 58.7075 125.29C58.5153 124.98 58.3577 124.378 58.4644 123.846C58.2547 125.015 57.7616 125.892 56.8766 126.751C55.9943 127.601 54.6794 128.366 53.0037 128.956C49.6575 130.156 44.9525 130.607 40.0975 130.366C35.2391 130.133 30.211 129.24 26.1285 127.954C24.0886 127.314 22.2848 126.58 20.8775 125.815C19.4678 125.058 18.4714 124.25 18.019 123.656C15.687 120.65 14.6793 117.446 14.5842 113.974C14.5088 110.922 15.164 107.664 16.3763 104.363C17.5864 101.062 19.3486 97.7267 21.4188 94.5579C25.5561 88.2126 30.9325 82.5314 35.4356 79.0015C36.2375 78.3724 35.2131 76.9394 34.3607 77.4986C29.3753 80.7684 23.3438 86.0962 18.4974 92.4998C16.0761 95.6997 13.9527 99.1714 12.4262 102.802C10.9028 106.433 9.9708 110.231 10.0007 114.048C10.0252 118.363 11.3113 122.708 14.2378 126.557C15.3119 127.955 16.7876 129.046 18.5455 130.04C20.3058 131.022 22.3652 131.88 24.6326 132.622C29.1645 134.102 34.5281 135.104 39.8311 135.41C45.1377 135.706 50.3639 135.325 54.7104 133.826C56.8816 133.073 58.8539 132.02 60.448 130.525C62.0398 129.038 63.213 127.042 63.6079 124.743C63.7489 124.013 63.552 123.217 63.251 122.716C62.9508 122.196 62.6064 121.881 62.2965 121.64C61.6693 121.178 61.0958 120.945 60.4593 120.724C59.2015 120.304 57.6812 120.025 55.8832 119.835C52.304 119.469 47.691 119.501 43.125 120.277C40.8424 120.669 38.5737 121.244 36.4515 122.083C34.3312 122.922 32.3476 124.025 30.6824 125.52C29.0223 127.007 27.688 128.933 27.0523 131.244C26.4085 133.546 26.4799 136.144 27.2811 138.905C28.1925 142.086 30.1244 144.684 32.5752 146.598C35.031 148.524 37.9889 149.829 41.179 150.691C47.5632 152.4 54.94 152.377 61.6158 151.227C64.7981 150.676 67.8186 149.86 70.5015 148.808C73.1845 147.752 75.5339 146.47 77.3871 144.866C79.3613 143.138 80.7298 141.538 81.5484 139.814C81.9519 138.952 82.2082 138.043 82.2443 137.103C82.2843 136.168 82.0812 135.216 81.675 134.401C81.2711 133.581 80.6918 132.906 80.0487 132.37C79.4025 131.83 78.6887 131.415 77.9323 131.073C76.4182 130.397 74.7173 130.005 72.8774 129.784C69.2045 129.349 64.9589 129.62 60.935 130.514C58.9242 130.964 56.9725 131.57 55.1799 132.362C53.3886 133.154 51.7498 134.125 50.3825 135.364C47.7108 137.799 45.5318 140.812 44.0022 144.051C42.4788 147.293 41.5938 150.765 41.6489 154.167C41.701 157.553 42.7561 160.943 45.1808 163.568C47.597 166.205 51.2349 167.902 55.8727 168.395C62.0953 169.071 68.6139 168.442 74.972 167.199C81.3294 165.957 87.5303 164.085 93.0822 162.201C93.4387 162.077 93.7028 161.949 93.9917 161.801C94.2764 161.654 94.5692 161.487 94.8822 161.297C95.5062 160.92 96.2099 160.462 96.9617 159.941C98.4641 158.897 100.149 157.627 101.607 156.388C102.337 155.767 103.01 155.153 103.59 154.559C104.173 153.946 104.66 153.41 105.091 152.625C105.291 152.217 105.546 151.72 105.535 150.819C105.522 150.381 105.389 149.821 105.08 149.34C104.777 148.851 104.331 148.486 103.933 148.28C103.113 147.872 102.536 147.888 102.034 147.891C101.532 147.915 101.077 147.996 100.578 148.113C98.3492 148.653 96.6017 149.336 95.2002 150.326C94.5035 150.823 93.8942 151.406 93.4197 152.101C92.9444 152.788 92.619 153.592 92.4935 154.404C92.3642 155.219 92.4287 156.027 92.6155 156.761C92.803 157.495 93.1055 158.167 93.4725 158.788C94.2119 160.031 95.2068 161.106 96.3524 162.108C98.6462 164.093 101.582 165.797 104.553 167.056C106.039 167.681 107.532 168.19 108.972 168.547C110.416 168.896 111.799 169.102 113.144 169.059C121.267 168.78 130.874 167.063 140.04 164.027C149.203 160.982 157.919 156.641 164.198 150.851C166.631 148.598 168.414 145.752 169.511 142.754C170.601 139.756 171.02 136.591 170.536 133.616C170.29 132.129 169.809 130.684 169.034 129.376C168.263 128.067 167.187 126.898 165.838 126.024C164.489 125.143 162.885 124.564 161.107 124.324C159.325 124.079 157.369 124.16 155.227 124.572C154.495 124.716 153.853 124.968 153.2 125.275C152.551 125.586 151.904 125.962 151.266 126.393C149.992 127.256 148.762 128.3 147.782 129.535C147.295 130.156 146.862 130.828 146.561 131.648C146.269 132.455 146.1 133.504 146.459 134.61C146.634 135.154 146.938 135.671 147.316 136.09C147.695 136.509 148.136 136.836 148.596 137.088C149.522 137.589 150.517 137.83 151.667 137.966C156.241 138.478 160.935 137.084 165.416 134.68C169.898 132.265 174.205 128.789 177.957 124.797C181.707 120.801 184.898 116.289 187.071 111.722C189.23 107.155 190.426 102.515 189.86 98.1539C189.539 95.7579 188.903 93.6493 187.967 91.828C187.035 90.0106 185.802 88.4884 184.372 87.2807C181.498 84.8536 177.959 83.7003 174.327 83.1372C170.683 82.5819 166.875 82.6091 163.232 82.7411C159.594 82.877 156.114 83.1216 153.251 83.075C153.876 84.5041 154.5 85.9292 155.125 87.3544C159.561 82.3605 165.684 74.9045 168.902 66.8466C170.498 62.8119 171.387 58.5597 170.733 54.3463C170.406 52.2493 169.678 50.1757 168.488 48.2418C167.301 46.304 165.661 44.5175 163.562 42.9254C163.225 42.673 162.885 42.4285 162.542 42.1993C158.495 39.4655 154.009 38.51 149.661 38.8323C145.3 39.1469 141.05 40.6536 137.042 42.739C129.035 46.9213 121.901 53.4726 116.997 58.5015C118.361 59.0568 119.726 59.6081 121.091 60.1635C121.045 55.7947 120.963 51.527 119.271 46.9446C117.487 42.1293 115.472 38.5179 113.169 35.9083C110.878 33.3065 108.22 31.7144 105.416 31.1979C102.614 30.6775 99.8093 31.2212 97.1784 32.3862C94.5373 33.5551 92.012 35.3452 89.5713 37.5043C84.7005 41.8342 80.1516 47.6825 76.245 53.3754C72.3446 59.0684 69.1032 64.6138 66.9782 68.2602C68.1354 68.5631 69.2927 68.8621 70.4499 69.165C70.2767 64.3653 70.0954 57.5966 68.0096 52.1289C66.958 49.3989 65.3837 46.9252 62.9279 45.3524C60.4744 43.7681 57.2536 43.271 53.4453 44.1292C48.7422 45.1661 44.8379 47.3795 41.6493 50.3114C38.4568 53.2472 35.963 56.8859 33.96 60.8275C29.9605 68.7223 27.8907 77.8753 26.3638 85.4012C26.1079 86.6633 28.3672 87.1409 28.6441 85.8866Z" fill="black"/>
</svg>
